<svg xmlns="http://www.w3.org/2000/svg" xmlns:xlink="http://www.w3.org/1999/xlink" version="1.1" id="Layer_1" x="0px" y="0px" width="100%" viewBox="200 165 620 620" enable-background="new 200 165 620 620" xml:space="preserve">
<path fill="#FFFFFF" opacity="1.000000" stroke="none" d=" M607.233032,191.603027   C630.601379,204.693253 643.822144,224.455872 648.037476,250.337997   C648.888489,255.563736 649.276733,260.919830 649.293091,266.217651   C649.401306,301.213257 649.350464,336.209320 649.349915,371.205261   C649.349365,408.863403 625.220825,439.379730 588.476807,448.417358   C578.231506,450.937286 567.822327,452.027069 557.356812,452.094421   C519.695923,452.336975 482.029144,451.999481 444.372864,452.501434   C421.283844,452.809143 399.069000,457.070709 379.694275,471.028168   C352.466309,490.643097 336.753479,516.659424 334.184265,550.457947   C332.614655,571.106506 333.718292,591.753784 333.435730,612.398560   C333.375214,616.820374 332.294373,618.540955 327.560120,618.467285   C312.936981,618.239746 298.229797,619.189087 283.966797,614.915649   C254.153030,605.982788 234.905746,585.878113 223.925644,557.348511   C217.320221,540.185669 214.239105,522.235840 212.565704,503.960785   C211.503143,492.356659 210.357147,480.754761 210.822754,469.120544   C211.967850,440.507111 214.045441,411.970856 225.731796,385.261047   C239.010727,354.911285 261.946106,336.119293 294.459351,329.330658   C300.305206,328.110046 306.277405,327.615295 312.297119,327.619781   C369.790405,327.662506 427.283722,327.627319 484.777039,327.654083   C487.843201,327.655518 490.731964,327.507141 493.193878,325.331421   C496.244019,322.635834 497.462219,319.305481 496.343567,315.453766   C495.245880,311.674255 492.128845,310.028778 488.464874,309.451172   C486.999390,309.220123 485.471405,309.371887 483.971893,309.371979   C443.143311,309.374329 402.314697,309.381226 361.486115,309.382843   C354.671539,309.383118 354.655487,309.373474 354.653625,302.509857   C354.647980,281.845581 355.345520,261.151398 354.450165,240.526108   C353.672394,222.610672 361.527771,209.797516 374.944702,199.595291   C387.103821,190.349503 401.265228,185.495178 416.125916,182.681015   C453.416962,175.619278 491.143555,174.597931 528.891357,175.915192   C550.568542,176.671677 572.410461,177.810379 593.164856,185.525024   C597.852173,187.267365 602.466614,189.130661 607.233032,191.603027  M406.987549,224.414246   C394.267303,231.132492 389.160980,243.808060 393.985199,256.690247   C398.310760,268.240845 411.086761,275.053894 423.054657,272.192108   C437.952301,268.629791 445.863800,254.725677 441.419739,239.916321   C437.164368,225.735764 422.507690,218.880676 406.987549,224.414246  z"/>
<path fill="#FFFFFF" opacity="1.000000" stroke="none" d=" M804.119751,413.213928   C809.186829,437.931030 809.454895,462.576843 808.118652,487.124359   C806.736450,512.515015 803.675171,537.893738 792.294739,561.176575   C776.943237,592.583435 751.740234,610.896423 717.122314,616.468445   C704.534058,618.494690 691.927185,618.508850 679.292664,618.291260   C674.720764,618.212524 673.183411,619.645569 673.261108,624.280884   C673.506653,638.941772 673.432617,653.610046 673.331360,668.274414   C673.073730,705.573914 655.879883,732.675415 623.345032,750.224731   C605.260559,759.979431 585.582336,764.589172 565.358948,767.448120   C541.346191,770.842896 517.193420,771.152039 493.098328,770.173828   C462.426514,768.928711 432.155945,764.798279 404.093018,750.973572   C384.616241,741.378662 368.419434,728.277893 358.999359,708.153137   C354.871704,699.334961 352.643005,689.988770 352.662048,680.177307   C352.734772,642.681702 352.597290,605.184265 352.953247,567.691406   C353.116364,550.509155 354.716705,533.400696 363.206116,517.880432   C377.260681,492.186005 399.055969,477.473328 427.798096,472.647095   C437.673737,470.988800 447.585205,470.579773 457.577271,470.609528   C493.073059,470.715240 528.573303,470.965302 564.063843,470.519226   C582.986206,470.281403 601.570068,467.046722 618.374390,457.641357   C648.017700,441.050018 665.048096,415.914001 668.749146,381.921539   C670.613770,364.795898 669.304871,347.639496 669.540527,330.500610   C669.603271,325.932312 670.915771,324.469513 675.500366,324.577362   C692.598206,324.979492 709.687134,324.068909 726.695190,327.460938   C759.720947,334.047455 781.349243,354.067688 795.086609,383.802917   C799.356873,393.046082 802.000549,402.836884 804.119751,413.213928  M521.881409,514.392151   C521.838989,509.727875 521.935486,505.057068 521.717041,500.401031   C521.475159,495.246429 518.062622,492.295135 512.862610,492.400146   C507.571442,492.506989 504.487488,495.446259 504.359192,500.773834   C504.234863,505.936554 504.025299,511.125275 504.394104,516.263733   C504.736542,521.034424 502.734650,522.245544 498.327698,522.220825   C475.500000,522.092773 452.671112,522.182129 429.842621,522.202271   C424.844757,522.206726 419.844940,522.159973 414.849670,522.283813   C411.524017,522.366272 409.115540,524.165833 407.943451,527.204285   C406.742737,530.316956 407.065063,533.338623 409.227753,536.130920   C410.835388,538.206726 413.358215,538.840637 415.213165,540.291870   C415.623657,541.877991 414.796509,543.015747 414.223877,544.178589   C402.975220,567.020020 391.776001,589.886536 380.334076,612.630859   C379.098297,615.087280 378.867401,617.206055 379.351501,619.659973   C380.325928,624.599243 382.053345,629.224854 384.782440,633.496765   C403.856384,663.353943 452.235107,662.681458 469.815613,630.966675   C473.629333,624.086853 475.631500,617.855347 471.039246,609.427002   C459.425568,588.112000 449.343140,565.962097 438.689667,544.125916   C437.993408,542.698914 436.781952,541.351318 437.323853,539.301758   C438.931946,538.412048 440.779633,538.695129 442.554779,538.693970   C461.050873,538.682068 479.550049,538.886902 498.041046,538.583923   C503.317352,538.497559 504.438171,540.375427 504.379700,545.226257   C504.144714,564.719299 504.290161,584.216858 504.281311,603.712708   C504.269653,629.373901 504.160767,655.035583 504.308228,680.695801   C504.333069,685.021179 503.086609,686.843628 498.634277,686.433533   C495.495300,686.144409 492.306610,686.338379 489.141693,686.398499   C481.160095,686.550171 477.456818,689.294617 475.325500,697.053650   C474.692535,699.358032 473.221680,699.276855 471.567902,699.329651   C468.090698,699.440857 464.625000,699.175232 461.194244,700.317078   C455.562042,702.191528 453.355072,706.222351 454.414978,713.382202   C455.126068,718.185730 458.314453,720.632263 464.053680,720.646423   C475.884430,720.675659 487.715302,720.657959 499.546143,720.657593   C520.541687,720.656921 541.537354,720.627441 562.532776,720.680237   C566.055908,720.689148 569.172058,720.224548 571.034546,716.749023   C575.314941,708.761108 570.363220,699.904846 561.329285,699.370117   C558.217407,699.185913 555.033020,699.906982 552.035706,698.822449   C550.083557,689.901306 545.794678,686.463013 536.655212,686.390930   C533.489380,686.365906 530.299133,686.137329 527.162964,686.442505   C522.637817,686.882874 521.562439,684.929443 521.574280,680.676208   C521.700989,635.186218 521.711243,589.695496 521.564636,544.205627   C521.550049,539.688538 523.106445,538.579468 527.360840,538.622803   C546.188232,538.814575 565.018677,538.696899 583.847961,538.734314   C585.432007,538.737488 587.197815,538.259338 588.721313,539.956665   C588.533813,540.605652 588.423096,541.419434 588.078857,542.118103   C576.231812,566.160889 564.380005,590.201477 552.447388,614.201782   C551.822937,615.457764 551.356262,616.513733 551.621704,617.929077   C553.492432,627.904175 557.821350,636.556824 565.651184,643.145691   C577.474609,653.095154 590.976807,657.046326 606.455017,654.814087   C622.735535,652.466248 635.046692,644.498779 643.189453,630.293762   C647.067383,623.528748 648.444458,617.361328 643.971252,609.176208   C632.248962,587.726929 622.087341,565.424805 611.303955,543.462402   C610.806641,542.449646 610.008484,541.502441 610.598816,540.167908   C613.185425,538.578064 616.706543,538.317200 618.242371,535.053528   C621.223938,528.717590 618.134216,521.710693 608.004395,521.857056   C581.516052,522.239868 555.019714,522.073792 528.526550,522.111511   C521.985229,522.120850 521.963684,522.072632 521.881409,514.392151  z"/>
<path fill="#FFFFFF" opacity="1.000000" stroke="none" d=" M456.302429,614.210693   C435.746948,614.284424 415.619751,614.284424 394.014160,614.284424   C404.868042,591.612610 415.213867,570.002075 425.739014,548.016907   C427.906738,549.415894 428.400787,551.203918 429.140503,552.735718   C438.266327,571.633301 447.375244,590.539246 456.402802,609.483826   C457.058777,610.860413 459.171875,612.426025 456.302429,614.210693  z"/>
<path fill="#FFFFFF" opacity="1.000000" stroke="none" d=" M613.870300,577.242065   C619.462158,589.002136 624.885498,600.428894 630.277710,611.870239   C630.471680,612.281799 630.359131,612.837830 630.421875,613.849365   C609.708496,613.849365 589.091980,613.849365 567.250244,613.849365   C577.906433,591.551880 588.230835,569.948608 599.150391,547.100098   C604.419556,557.898743 609.058044,567.404968 613.870300,577.242065  z"/>
</svg>